[Header]
FileType HTR
DataType HTRS
FileVersion 1
NumSegments 64
NumFrames 3
DataFrameRate 24
EulerRotationOrder ZYX
CalibrationUnits mm
RotationUnits Degrees
GlobalAxisofGravity Y
BoneLengthAxis Y
ScaleFactor 1.0
[SegmentNames&Hierarchy]
Hips	GLOBAL
Spine	Hips
Spine1	Spine
Spine2	Spine1
Neck	Spine2
Head	Neck
LeftEye	Head
RightEye	Head
LeftShoulder	Spine2
LeftArm	LeftShoulder
LeftForeArm	LeftArm
LeftHand	LeftForeArm
LeftHandThumb1	LeftHand
LeftHandThumb2	LeftHandThumb1
LeftHandThumb3	LeftHandThumb2
LeftHandThumb4	LeftHandThumb3
LeftHandIndex1	LeftHand
LeftHandIndex2	LeftHandIndex1
LeftHandIndex3	LeftHandIndex2
LeftHandIndex4	LeftHandIndex3
LeftHandMiddle1	LeftHand
LeftHandMiddle2	LeftHandMiddle1
LeftHandMiddle3	LeftHandMiddle2
LeftHandMiddle4	LeftHandMiddle3
LeftHandRing1	LeftHand
LeftHandRing2	LeftHandRing1
LeftHandRing3	LeftHandRing2
LeftHandRing4	LeftHandRing3
LeftHandPinky1	LeftHand
LeftHandPinky2	LeftHandPinky1
LeftHandPinky3	LeftHandPinky2
LeftHandPinky4	LeftHandPinky3
RightShoulder	Spine2
RightArm	RightShoulder
RightForeArm	RightArm
RightHand	RightForeArm
RightHandPinky1	RightHand
RightHandPinky2	RightHandPinky1
RightHandPinky3	RightHandPinky2
RightHandPinky4	RightHandPinky3
RightHandRing1	RightHand
RightHandRing2	RightHandRing1
RightHandRing3	RightHandRing2
RightHandRing4	RightHandRing3
RightHandMiddle1	RightHand
RightHandMiddle2	RightHandMiddle1
RightHandMiddle3	RightHandMiddle2
RightHandMiddle4	RightHandMiddle3
RightHandIndex1	RightHand
RightHandIndex2	RightHandIndex1
RightHandIndex3	RightHandIndex2
RightHandIndex4	RightHandIndex3
RightHandThumb1	RightHand
RightHandThumb2	RightHandThumb1
RightHandThumb3	RightHandThumb2
RightHandThumb4	RightHandThumb3
LeftUpLeg	Hips
LeftLeg	LeftUpLeg
LeftFoot	LeftLeg
LeftToeBase	LeftFoot
RightUpLeg	Hips
RightLeg	RightUpLeg
RightFoot	RightLeg
RightToeBase	RightFoot
[BasePosition]
Hips	0	0	0	0	0	0	1
Spine	0	0	0	0	0	0	1
Spine1	0	0	0	0	0	0	1
Spine2	0	0	0	0	0	0	1
Neck	0	0	0	0	0	0	1
Head	0	0	0	0	0	0	1
LeftEye	0	0	0	0	0	0	1
RightEye	0	0	0	0	0	0	1
LeftShoulder	0	0	0	0	0	0	1
LeftArm	0	0	0	0	0	0	1
LeftForeArm	0	0	0	0	0	0	1
LeftHand	0	0	0	0	0	0	1
LeftHandThumb1	0	0	0	0	0	0	1
LeftHandThumb2	0	0	0	0	0	0	1
LeftHandThumb3	0	0	0	0	0	0	1
LeftHandThumb4	0	0	0	0	0	0	1
LeftHandIndex1	0	0	0	0	0	0	1
LeftHandIndex2	0	0	0	0	0	0	1
LeftHandIndex3	0	0	0	0	0	0	1
LeftHandIndex4	0	0	0	0	0	0	1
LeftHandMiddle1	0	0	0	0	0	0	1
LeftHandMiddle2	0	0	0	0	0	0	1
LeftHandMiddle3	0	0	0	0	0	0	1
LeftHandMiddle4	0	0	0	0	0	0	1
LeftHandRing1	0	0	0	0	0	0	1
LeftHandRing2	0	0	0	0	0	0	1
LeftHandRing3	0	0	0	0	0	0	1
LeftHandRing4	0	0	0	0	0	0	1
LeftHandPinky1	0	0	0	0	0	0	1
LeftHandPinky2	0	0	0	0	0	0	1
LeftHandPinky3	0	0	0	0	0	0	1
LeftHandPinky4	0	0	0	0	0	0	1
RightShoulder	0	0	0	0	0	0	1
RightArm	0	0	0	0	0	0	1
RightForeArm	0	0	0	0	0	0	1
RightHand	0	0	0	0	0	0	1
RightHandPinky1	0	0	0	0	0	0	1
RightHandPinky2	0	0	0	0	0	0	1
RightHandPinky3	0	0	0	0	0	0	1
RightHandPinky4	0	0	0	0	0	0	1
RightHandRing1	0	0	0	0	0	0	1
RightHandRing2	0	0	0	0	0	0	1
RightHandRing3	0	0	0	0	0	0	1
RightHandRing4	0	0	0	0	0	0	1
RightHandMiddle1	0	0	0	0	0	0	1
RightHandMiddle2	0	0	0	0	0	0	1
RightHandMiddle3	0	0	0	0	0	0	1
RightHandMiddle4	0	0	0	0	0	0	1
RightHandIndex1	0	0	0	0	0	0	1
RightHandIndex2	0	0	0	0	0	0	1
RightHandIndex3	0	0	0	0	0	0	1
RightHandIndex4	0	0	0	0	0	0	1
RightHandThumb1	0	0	0	0	0	0	1
RightHandThumb2	0	0	0	0	0	0	1
RightHandThumb3	0	0	0	0	0	0	1
RightHandThumb4	0	0	0	0	0	0	1
LeftUpLeg	0	0	0	0	0	0	1
LeftLeg	0	0	0	0	0	0	1
LeftFoot	0	0	0	0	0	0	1
LeftToeBase	0	0	0	0	0	0	1
RightUpLeg	0	0	0	0	0	0	1
RightLeg	0	0	0	0	0	0	1
RightFoot	0	0	0	0	0	0	1
RightToeBase	0	0	0	0	0	0	1
[Hips]
12	940.9796753	1009.824951	-46.02223969	25.80763435	79.54902649	25.82308197	1.0
13	1014.401733	1021.165771	-45.68576431	23.95168495	80.05378723	24.03749275	1.0
14	1090.462036	1025.831299	-42.6448822	20.95914841	81.20404053	20.89217186	1.0
[Spine]
12	0	101.8159943	1.315000057	3.573780775	-5.501373768	-2.18759799	1.0
13	0	101.8159943	1.315000057	3.728373289	-6.345555782	-1.60924077	1.0
14	0	101.8159943	1.315000057	3.739930391	-7.677983761	-1.069763422	1.0
[Spine1]
12	0	100.8349991	-10.00800037	1.18061316	-14.81272697	1.166636109	1.0
13	0	100.8349991	-10.00800037	1.298142433	-15.10011292	1.355535507	1.0
14	0	100.8349991	-10.00800037	1.366824985	-15.5542345	1.506923914	1.0
[Spine2]
12	0	91	-13.73399925	0.9282718301	-14.76365662	1.521386743	1.0
13	0	91	-13.73399925	1.048206329	-15.05123997	1.709037304	1.0
14	0	91	-13.73399925	1.118643641	-15.5086689	1.858355522	1.0
[Neck]
12	0	166.7169952	-25.16200066	3.572204113	-6.017458439	-0.7629544735	1.0
13	0	166.7169952	-25.16200066	4.263593197	-5.653603554	-0.9765503407	1.0
14	0	166.7169952	-25.16200066	4.724755287	-5.272246361	-0.8685052991	1.0
[Head]
12	0	96.17900085	16.84999847	-14.44627762	-38.69047546	8.002243996	1.0
13	0	96.17900085	16.84999847	-14.26439476	-37.65540695	7.544542789	1.0
14	0	96.17900085	16.84999847	-14.36515427	-36.46298218	7.720034122	1.0
[LeftEye]
12	30.6760006	64.09500122	92.83599854	0	0	0	1.0
13	30.6760006	64.09500122	92.83599854	0	0	0	1.0
14	30.6760006	64.09500122	92.83599854	0	0	0	1.0
[RightEye]
12	-30.6760006	64.09500122	92.83499908	0	0	0	1.0
13	-30.6760006	64.09500122	92.83499908	0	0	0	1.0
14	-30.6760006	64.09500122	92.83499908	0	0	0	1.0
[LeftShoulder]
12	45.70400238	109.4599991	-26.28000069	6.752987862	-17.99533463	-18.09484482	1.0
13	45.70400238	109.4599991	-26.28000069	6.922783852	-18.37874031	-18.57392883	1.0
14	45.70400238	109.4599991	-26.28000069	7.079145432	-19.48462677	-18.54837227	1.0
[LeftArm]
12	105.923996	-5.24600029	-22.32099915	-13.61287594	12.95621681	-68.03083801	1.0
13	105.923996	-5.24600029	-22.32099915	-7.303132057	5.108664989	-64.41928101	1.0
14	105.923996	-5.24600029	-22.32099915	-1.2369802	-1.42177999	-60.83895493	1.0
[LeftForeArm]
12	278.414978	-0.0009999999311	0	2.900568006e-06	-0.1126220673	-0.0001922985393	1.0
13	278.414978	-0.0009999999311	0	-3.212594493e-06	-1.127714753	-0.0002097377146	1.0
14	278.414978	-0.0009999999311	0	4.939998988e-08	-3.894311905	-0.0001969906734	1.0
[LeftHand]
12	283.2879944	0	0	28.11536026	16.40211487	-12.20244503	1.0
13	283.2879944	0	0	28.10156441	13.70070171	-15.63880062	1.0
14	283.2879944	0	0	25.20773315	9.94536972	-20.55938911	1.0
[LeftHandThumb1]
12	24.6609993	-15.75	26.8239994	9.584122658	5.973829269	3.298553705	1.0
13	24.6609993	-15.75	26.8239994	9.52260685	5.842554092	3.22871232	1.0
14	24.6609993	-15.75	26.8239994	9.335930824	5.444948673	3.021820784	1.0
[LeftHandThumb2]
12	32.29800034	-18.64699936	18.64699936	10.59970379	23.99901199	14.05207062	1.0
13	32.29800034	-18.64699936	18.64699936	6.403660297	26.87347794	14.01329899	1.0
14	32.29800034	-18.64699936	18.64699936	4.451046944	26.91844749	15.0744133	1.0
[LeftHandThumb3]
12	26.52600098	-15.31499958	15.31499958	5.574613094	9.850274086	0.9505454898	1.0
13	26.52600098	-15.31499958	15.31499958	5.642066479	11.6708765	1.574204087	1.0
14	26.52600098	-15.31499958	15.31499958	5.530627251	12.90657234	2.053354502	1.0
[LeftHandThumb4]
12	19.54599953	-11.28499985	11.28499985	0	0	0	1.0
13	19.54599953	-11.28499985	11.28499985	0	0	0	1.0
14	19.54599953	-11.28499985	11.28499985	0	0	0	1.0
[LeftHandIndex1]
12	91.09299469	-5.170999527	22.60099792	-1.897546768	4.081008434	-26.05785942	1.0
13	91.09299469	-5.170999527	22.60099792	-1.509710073	3.631679296	-23.30643845	1.0
14	91.09299469	-5.170999527	22.60099792	-0.8436781764	2.980374813	-17.94550514	1.0
[LeftHandIndex2]
12	36.76399994	0	0	-0.3684154153	2.223401546	-14.61455345	1.0
13	36.76399994	0	0	-0.3621163964	2.208068371	-14.45160294	1.0
14	36.76399994	0	0	-0.343567431	2.162198544	-13.96519279	1.0
[LeftHandIndex3]
12	28.83100128	0	0	-0.2339219898	1.346334338	-15.69109726	1.0
13	28.83100128	0	0	-0.2296360284	1.330976486	-15.53245258	1.0
14	28.83100128	0	0	-0.216487065	1.282877326	-15.03645706	1.0
[LeftHandIndex4]
12	23.92700005	0	0	0	0	0	1.0
13	23.92700005	0	0	0	0	0	1.0
14	23.92700005	0	0	0	0	0	1.0
[LeftHandMiddle1]
12	95.33399963	0	0	-4.566240311	8.383890152	-39.11276245	1.0
13	95.33399963	0	0	-4.237839699	7.993381977	-36.77806091	1.0
14	95.33399963	0	0	-3.675128937	7.939607143	-32.67687607	1.0
[LeftHandMiddle2]
12	36.98199844	0	0	-0.7282682061	2.894608498	-21.91170692	1.0
13	36.98199844	0	0	-0.7234725952	2.88667345	-21.820158	1.0
14	36.98199844	0	0	-0.6860548258	2.823723316	-21.09676361	1.0
[LeftHandMiddle3]
12	29.50900078	0	0	-0.2538353801	1.866944313	-16.24012947	1.0
13	29.50900078	0	0	-0.2513364255	1.858983994	-16.1563015	1.0
14	29.50900078	0	0	-0.2299818546	1.788720727	-15.41813087	1.0
[LeftHandMiddle4]
12	28.3390007	0	0	0	0	0	1.0
13	28.3390007	0	0	0	0	0	1.0
14	28.3390007	0	0	0	0	0	1.0
[LeftHandRing1]
12	91.04499817	-0.4390000105	-18.65100098	-6.061359406	13.17820072	-48.48313904	1.0
13	91.04499817	-0.4390000105	-18.65100098	-5.817379475	13.27157879	-46.72411728	1.0
14	91.04499817	-0.4390000105	-18.65100098	-5.312831879	13.59718418	-43.02481461	1.0
[LeftHandRing2]
12	31.54000092	0	0	-0.4132802486	2.703756332	-24.3621521	1.0
13	31.54000092	0	0	-0.4124311805	2.701644659	-24.33912277	1.0
14	31.54000092	0	0	-0.3888885379	2.642888546	-23.70022774	1.0
[LeftHandRing3]
12	29.37700081	0	0	-0.1273739785	2.040081501	-20.75612068	1.0
13	29.37700081	0	0	-0.1272936314	2.039815664	-20.75336456	1.0
14	29.37700081	0	0	-0.1098770946	1.973785043	-20.06720543	1.0
[LeftHandRing4]
12	26.47500038	0	0	0	0	0	1.0
13	26.47500038	0	0	0	0	0	1.0
14	26.47500038	0	0	0	0	0	1.0
[LeftHandPinky1]
12	80.77799988	-4.887000084	-38.06099701	-8.582265854	16.84413338	-53.4945488	1.0
13	80.77799988	-4.887000084	-38.06099701	-8.308440208	16.67395592	-52.05461502	1.0
14	80.77799988	-4.887000084	-38.06099701	-7.713001728	16.58209038	-48.57592392	1.0
[LeftHandPinky2]
12	36	0	0	-1.065265894	2.848702908	-32.51662827	1.0
13	36	0	0	-1.070256472	2.855672836	-32.60253143	1.0
14	36	0	0	-1.036672115	2.808532953	-32.02285767	1.0
[LeftHandPinky3]
12	21.14200211	0	0	-0.4517882466	2.631330013	-18.30878448	1.0
13	21.14200211	0	0	-0.4552616775	2.639398098	-18.39651108	1.0
14	21.14200211	0	0	-0.4326685071	2.586256981	-17.82004738	1.0
[LeftHandPinky4]
12	19.75699997	0	0	0	0	0	1.0
13	19.75699997	0	0	0	0	0	1.0
14	19.75699997	0	0	0	0	0	1.0
[RightShoulder]
12	-45.70000076	109.4620056	-26.28000069	3.919540882	2.836610079	7.400310516	1.0
13	-45.70000076	109.4620056	-26.28000069	4.043737888	3.582662582	8.131915092	1.0
14	-45.70000076	109.4620056	-26.28000069	4.148575783	3.539183855	9.366164207	1.0
[RightArm]
12	-105.9280014	-5.248000145	-22.32099915	31.25590515	20.318964	63.03817749	1.0
13	-105.9280014	-5.248000145	-22.32099915	25.66052246	16.94013786	65.25450134	1.0
14	-105.9280014	-5.248000145	-22.32099915	17.8465538	12.98350716	65.50791168	1.0
[RightForeArm]
12	-278.414978	0	0	9.309819688e-06	28.76969719	-6.920137821e-06	1.0
13	-278.414978	0	0	-1.053994538e-06	20.33342743	1.291320041e-05	1.0
14	-278.414978	0	0	7.242885545e-07	14.90095234	1.955436164e-05	1.0
[RightHand]
12	-283.2879944	0	0.0009999999311	6.490264416	22.34170914	-28.71961784	1.0
13	-283.2879944	0	0.0009999999311	15.00394344	25.03725815	-25.6698246	1.0
14	-283.2879944	0	0.0009999999311	30.00628281	24.81186104	-17.01135635	1.0
[RightHandPinky1]
12	-80.76699829	-4.885000229	-38.06000137	-2.337078333	-14.24300098	21.05171013	1.0
13	-80.76699829	-4.885000229	-38.06000137	-1.941078901	-15.41491508	18.25258255	1.0
14	-80.76699829	-4.885000229	-38.06000137	-2.095921516	-16.0881176	18.58553314	1.0
[RightHandPinky2]
12	-36	0	0.0009999999311	-0.002814113162	0.1363593638	0.4320923686	1.0
13	-36	0	0.0009999999311	-0.01978122815	-0.07450275123	2.545716286	1.0
14	-36	0	0.0009999999311	-0.07246214151	-0.4675045609	6.508462906	1.0
[RightHandPinky3]
12	-21.14200211	0	0	-0.18455185	3.39854598	-12.21087646	1.0
13	-21.14200211	0	0	-0.1582428366	3.152029276	-9.737740517	1.0
14	-21.14200211	0	0	-0.1382853836	2.747721434	-5.701162338	1.0
[RightHandPinky4]
12	-19.75699997	0	0	0	0	0	1.0
13	-19.75699997	0	0	0	0	0	1.0
14	-19.75699997	0	0	0	0	0	1.0
[RightHandRing1]
12	-91.03599548	-0.4390000105	-18.65100098	-1.7453233	-11.44656181	16.73402786	1.0
13	-91.03599548	-0.4390000105	-18.65100098	-1.417822003	-12.16589928	13.65603256	1.0
14	-91.03599548	-0.4390000105	-18.65100098	-1.401048183	-12.63179779	13.33125973	1.0
[RightHandRing2]
12	-31.54000092	0	0	0.002698797733	-0.354813695	0.1274516881	1.0
13	-31.54000092	0	0	0.005987114739	-0.4889735281	1.479987144	1.0
14	-31.54000092	0	0	0.002650541952	-0.7682691813	4.295601368	1.0
[RightHandRing3]
12	-29.37700081	0	0	-0.2009450048	2.756409883	-9.22269249	1.0
13	-29.37700081	0	0	-0.1581129879	2.584475756	-7.44148159	1.0
14	-29.37700081	0	0	-0.09009001404	2.24579525	-3.96936202	1.0
[RightHandRing4]
12	-26.47500038	0	0	0	0	0	1.0
13	-26.47500038	0	0	0	0	0	1.0
14	-26.47500038	0	0	0	0	0	1.0
[RightHandMiddle1]
12	-95.32500458	0	0	-1.129187107	-5.558923244	12.83414364	1.0
13	-95.32500458	0	0	-0.5840257406	-5.759487629	7.941136837	1.0
14	-95.32500458	0	0	-0.3732123375	-5.909889221	5.943050385	1.0
[RightHandMiddle2]
12	-36.98199844	0	0	0.03335694596	-0.8273158073	0.04343135282	1.0
13	-36.98199844	0	0	0.01488478575	-0.9340540767	1.111432672	1.0
14	-36.98199844	0	0	-0.03231891617	-1.165679574	3.441983938	1.0
[RightHandMiddle3]
12	-29.50900078	0	0	-0.01555789541	0.3520659208	-4.750908375	1.0
13	-29.50900078	0	0	-0.008842879906	0.2237484306	-3.460071087	1.0
14	-29.50900078	0	0	-0.004162812606	-0.04867968708	-0.7230653763	1.0
[RightHandMiddle4]
12	-28.3390007	0	0.0009999999311	0	0	0	1.0
13	-28.3390007	0	0.0009999999311	0	0	0	1.0
14	-28.3390007	0	0.0009999999311	0	0	0	1.0
[RightHandIndex1]
12	-91.08300018	-5.167999744	22.60099792	0.06388033926	-0.2492690533	1.796724916	1.0
13	-91.08300018	-5.167999744	22.60099792	0.524646163	-0.4679514468	-2.346494913	1.0
14	-91.08300018	-5.167999744	22.60099792	0.7478379011	-0.6819597483	-3.74008441	1.0
[RightHandIndex2]
12	-36.76399994	0	0	0.01812482998	-0.7905919552	0.0002016747894	1.0
13	-36.76399994	0	0	0.008645630442	-0.8574648499	0.6584393978	1.0
14	-36.76399994	0	0	-0.01654741168	-1.012595773	2.20199132	1.0
[RightHandIndex3]
12	-28.83100128	0	0	-0.07587838173	1.456797361	-2.339450121	1.0
13	-28.83100128	0	0	-0.07255195826	1.351403952	-1.29086411	1.0
14	-28.83100128	0	0	-0.07241306454	1.097547889	1.233229399	1.0
[RightHandIndex4]
12	-23.92700005	0	0	0	0	0	1.0
13	-23.92700005	0	0	0	0	0	1.0
14	-23.92700005	0	0	0	0	0	1.0
[RightHandThumb1]
12	-24.64799881	-15.72700024	26.82600021	10.44327641	3.476193905	4.740432739	1.0
13	-24.64799881	-15.72700024	26.82600021	9.883234978	-0.9066502452	2.152920961	1.0
14	-24.64799881	-15.72700024	26.82600021	9.637692451	-4.111983776	0.2917310297	1.0
[RightHandThumb2]
12	-32.29800034	-18.64699936	18.64699936	0.1252106428	-19.64526558	-11.38892365	1.0
13	-32.29800034	-18.64699936	18.64699936	1.491446733	-16.11620903	-11.91276836	1.0
14	-32.29800034	-18.64699936	18.64699936	2.954933882	-13.45656776	-12.33450794	1.0
[RightHandThumb3]
12	-26.52600098	-15.31399918	15.31399918	1.99311161	-9.51992321	-0.6168526411	1.0
13	-26.52600098	-15.31399918	15.31399918	2.242901564	-10.27083683	-0.414952606	1.0
14	-26.52600098	-15.31399918	15.31399918	2.64362669	-11.45873451	-0.09813668579	1.0
[RightHandThumb4]
12	-19.54599953	-11.28499985	11.28499985	0	0	0	1.0
13	-19.54599953	-11.28499985	11.28499985	0	0	0	1.0
14	-19.54599953	-11.28499985	11.28499985	0	0	0	1.0
[LeftUpLeg]
12	82.07800293	-67.51699829	-15.99599934	-18.49248886	1.846639276	-9.173859596	1.0
13	82.07800293	-67.51699829	-15.99599934	-10.85311222	3.939175129	-9.313903809	1.0
14	82.07800293	-67.51699829	-15.99599934	-2.906264305	6.799462795	-8.002095222	1.0
[LeftLeg]
12	0	-443.7049866	2.845999956	22.67847061	7.365477562	4.442902565	1.0
13	0	-443.7049866	2.845999956	17.23903084	5.806156635	3.119176149	1.0
14	0	-443.7049866	2.845999956	11.05340767	2.084060669	0.9172472358	1.0
[LeftFoot]
12	0	-444.2789917	-29.8219986	-4.535360813	1.024448514	3.055400133	1.0
13	0	-444.2789917	-29.8219986	-7.169957638	1.043158889	3.693040371	1.0
14	0	-444.2789917	-29.8219986	-8.850968361	1.602334738	4.382488728	1.0
[LeftToeBase]
12	0	-87.28699493	107.1060028	-2.83442378	-5.120453352e-06	3.638144008e-08	1.0
13	0	-87.28699493	107.1060028	-3.236576557	-4.096169869e-05	3.50451046e-07	1.0
14	0	-87.28699493	107.1060028	-3.21685338	-1.131487261e-05	-1.436188199e-06	1.0
[RightUpLeg]
12	-82.07800293	-67.51699829	-15.99599934	-7.998999119	-5.047623158	-4.37792778	1.0
13	-82.07800293	-67.51699829	-15.99599934	-16.5118618	-1.345856547	-1.119483829	1.0
14	-82.07800293	-67.51699829	-15.99599934	-22.75379753	1.708180547	1.529287457	1.0
[RightLeg]
12	0	-443.7049866	2.861999989	58.74070358	1.232266665	-11.82155228	1.0
13	0	-443.7049866	2.861999989	58.32210159	0.9320214391	-11.30777264	1.0
14	0	-443.7049866	2.861999989	50.6015892	-0.4001654685	-11.09336472	1.0
[RightFoot]
12	0	-444.2770081	-29.83799934	17.89338112	-4.930809021	2.492588997	1.0
13	0	-444.2770081	-29.83799934	8.252804756	-11.109128	-0.1606358439	1.0
14	0	-444.2770081	-29.83799934	2.872401714	-16.67402649	-1.917078495	1.0
[RightToeBase]
12	0	-87.28699493	107.1060028	-0.3460276425	-2.502352982e-05	-1.449119645e-05	1.0
13	0	-87.28699493	107.1060028	-0.556986928	-1.193128173e-05	-2.499673064e-05	1.0
14	0	-87.28699493	107.1060028	-3.023324013	-0.02999690548	5.685177326	1.0
[EndOfFile]
